<svg xmlns="http://www.w3.org/2000/svg" viewBox="0 0 93.39 93.39"><defs><style>.cls-1,.cls-3{fill:#fff;}.cls-2{fill:#002144;}.cls-2,.cls-3,.cls-4{fill-rule:evenodd;}.cls-4{fill:#2579f9;}</style></defs><g id="Layer_2" data-name="Layer 2"><g id="Layer_1-2" data-name="Layer 1"><circle class="cls-1" cx="46.69" cy="46.69" r="46.69" transform="translate(-8.91 82.32) rotate(-77.65)"/><path class="cls-2" d="M27.06,6.92a4.13,4.13,0,0,0,1-.75c.23-.31-.07-.59.25-1s1.24-.7,1.5-1.13-.65-.41-.39-.76a47.84,47.84,0,0,0-4.81,2.24,1.81,1.81,0,0,1,.79.27c.19.24.05.53-.36.59a14,14,0,0,1-1.52-.25l-1,.58-.09.15a.57.57,0,0,0,0,.6c.09.18.85.11.49.44s-1.33.37-1.7.67-.34.63-.17.82.45,0,.93,0,1.27.13,1.95.12,1.76-.14,2.11-.17.51-.26.3-.75a2.51,2.51,0,0,0-.87-1c-.13,0-1.11.26-.79-.28s2.24-.31,2.4-.44Zm4.45-4.39c0,.05-.05.12.2,0s.76-.28,1.25-.51c-.48.15-1,.31-1.45.48ZM93,40.87a.66.66,0,0,0-.21,0c-.3,0-.77.12-.8.42s.29.63.44.8a3.53,3.53,0,0,0,.76.68c.09,1,.14,2,.16,3h0c0,.32,0,.64,0,.95,0,1.45-.07,2.88-.2,4.3l-.07,0c-.1.06-.25,0-.37.05s-.49.24-.72.3a3.31,3.31,0,0,0-.55.08c-.58.18-1.1.73-1.68.43A18.7,18.7,0,0,0,89.17,50c-.15-.27-.47-.34-.58-.61s.27-.17.3-.37c-.1-.36-.49-.55-.73-.87-.12-.15-.16-.38-.3-.56-.44-.62-1.32-.94-1.51-1.72-.06-.19,0-.36,0-.53a2,2,0,0,0-.44-.76c-.16-.17-.45-.27-.61-.52a4.56,4.56,0,0,1-.24-.55,6.61,6.61,0,0,0-1.52-1.77c-.31,0-.64,0-.78.23a5.38,5.38,0,0,0,.65,1.29,7.11,7.11,0,0,1,.74,1.18,3.51,3.51,0,0,1,.11.51c.24.57,1,.76,1.15,1.42.09.44,0,.75.11,1.18s.78.65,1.07,1.07a8.29,8.29,0,0,1,.36,1.1c.22.46.84.64,1.3,1a7.15,7.15,0,0,1,1,.94c.21.16.48.18.53.37s-.11.3-.15.53c.27.25.54.77,1,.78.19,0,.45-.19.75-.23s.32,0,.45,0,.37-.21.6-.27l.56-.07a48.34,48.34,0,0,1-1,5.13c-.18.19-.36.36-.56.54s-.59.35-.91.58a8.91,8.91,0,0,0-1.68,1.68c-.18.22-.27.48-.45.68s-.63.43-.85.71a9,9,0,0,0-.47,1c-.24.42-.67.75-.61,1.29,0,.23.2.33.26.54A2.43,2.43,0,0,1,86.65,66a3.07,3.07,0,0,0,.66,1.24c0,.71-.16,1.42-.15,2a6.21,6.21,0,0,1,.06.7l-.59,1a3.9,3.9,0,0,1-.58.54c-.35.28-.89.42-1.27.74s-.51.59-.78.84c-.45.45-1.06.87-1.13,1.23,0,.21.12.49.14.69a3.8,3.8,0,0,1,.09,1c-.5.62-1,1.23-1.55,1.82a1,1,0,0,0-.48.54,46.51,46.51,0,0,1-9,7.58,1,1,0,0,1-.75-1c0-.21.21-.46.21-.65s-.23-.53-.42-.93-.24-.88-.42-1.22-.48-.48-.63-.76a5.63,5.63,0,0,1-.36-1.94c0-.24-.17-.47-.18-.74a9.68,9.68,0,0,0,0-1.07,5.82,5.82,0,0,0-.41-.69c-.24-.46-.38-1.11-.59-1.47s-.59-.7-.61-1.13a4.85,4.85,0,0,1,.1-1.07c0-.29.25-.52.31-.8s0-.41.06-.62c.21-.91,1.14-1.29,1-2.38,0-.44-.34-.64-.37-1.16,0-.24.13-.47.13-.7a3.35,3.35,0,0,0-.38-1.1,8.66,8.66,0,0,0-1.1-2.24c-.28-.34-.69-.57-.91-.89a2.31,2.31,0,0,1-.43-1c0-.22.17-.38.23-.6s.09-.82.2-1.3a3.35,3.35,0,0,0,.22-1.06,1.53,1.53,0,0,0-.88-1c-.51-.13-1.05.21-1.71.16-.56-.37-.51-1.33-1.33-1.45a5.46,5.46,0,0,0-2.91.67,4.58,4.58,0,0,1-1.22.55c-.36,0-.71-.2-1-.22a4.74,4.74,0,0,0-1.45.11c-.43.07-.82.4-1.19.43-.72.09-1.41-.66-1.87-1-.28-.24-.56-.43-.82-.64s-.64-.38-.85-.59-.3-.84-.45-1.26-.74-.81-1.15-1.27-1-.84-1.13-1.28c0-.22.09-.48.08-.71s-.27-.56-.26-.82.39-.62.49-.91,0-.36.08-.57a2.64,2.64,0,0,0,.29-1.22c0-.27-.21-.46-.22-.76s.13-.35.11-.54c0-.34-.44-.42-.48-.81s.36-.74.6-1.19c.1-.2.15-.53.26-.69.2-.34.55-.49.72-.83s.15-.62.26-.81.4-.38.67-.66a5.34,5.34,0,0,1,.44-.69,2.51,2.51,0,0,1,.68-.28,3.21,3.21,0,0,0,1.53-1.47,1.66,1.66,0,0,1,.29-1.35c.24-.41.39-.82.78-1s.91-.29,1.22-.82a2.77,2.77,0,0,0,.41-1,1.16,1.16,0,0,0-.7-1c-.33,0-.85.25-1-.13-.06-.11,0-.41,0-.56s-.25-.45-.26-.64c0-.39.35-.76.46-1.2a6.22,6.22,0,0,0-.05-1.71c.51-.85,1.65-.41,2.78-.29.18,0,.37,0,.56,0,.67,0,1.2.27,1.42-.37a4.37,4.37,0,0,0,.09-1.35A3.33,3.33,0,0,0,59.48,27c-.36-.24-.89-.15-1.1-.62.16-.77,1-.1,1.46-.27.25-.07.21-.56.43-.62s.33.19.54.18a3.41,3.41,0,0,0,1-.41c.24-.17.3-.51.51-.65a1.74,1.74,0,0,1,.46-.13,2.66,2.66,0,0,0,.89-.65c.28-.39.42-.87.75-.91.5-.07,1.59.2,1.67-.37s-.49-1-.31-1.57.51-.35,1-.58c.27.23.23.79.26,1.15.33,0,1,0,1-.35s-.51-.85-.65-1.09-.19-.75-.45-.81c-.55-.17-1,.72-1.72.66a1.29,1.29,0,0,1-1.05-.82,2.51,2.51,0,0,1-.06-.62A3,3,0,0,1,64,17.4c.26-.49.87-.53,1.31-.75.17-.09.28-.29.48-.36s.78.07,1.08-.09.13-.32.25-.56.29-.2.41-.37.08-.32.15-.42c.28-.38.83-.47,1-.88.09-.19-.18-.29-.14-.56s.55,0,.81,0,.62-.44,1-.47a9.12,9.12,0,0,0,1.18,0c.21-.06.39-.25.59-.24s.28.07.39.08.26,0,.43,0a8.65,8.65,0,0,1,.9.21c.56.11,1.06,0,1.53.29.24.17.25.44.57.63.17.1.36,0,.59.1s.73.41,1.17.55c.17,0,.33,0,.49.08a10.38,10.38,0,0,1,1.58.82c.44.22,1.31.59,1.38,1s-.68.47-1,.39c-.55-.09-1.31-.57-1.88-.47A2.11,2.11,0,0,0,80.05,18c0-.4-.45-.26-.42-.63.31-.21.78.34,1.27.35.19,0,.11-.33.15-.51a1.43,1.43,0,0,1,1.54-.05.23.23,0,0,1,.12-.12h0a46.69,46.69,0,0,1,7.76,13.41l-.29.14c-.27.14-.59.24-.73.33a.69.69,0,0,0-.28.52c0,.22.37.39.52.67s.08.34.15.48a5.11,5.11,0,0,0,.93.93c.24.23.89.74.92.95s-.17.21-.23.42a2.42,2.42,0,0,0,0,.84c.1.36.45.43.81.59A44,44,0,0,1,93,40.87ZM81.45,37c.15.36.8.2.86-.09-.17-.28-.84-.2-.86.09ZM68.73,34.25a2.1,2.1,0,0,0,1.45.8c.21-.16.21-.54.32-.84-.53,0-1.39-.27-1.77,0ZM66,32.08a3.88,3.88,0,0,1,0,1.08c.24.49.75.09.88-.24.16-1.07-.38-1.39-.87-.84Zm.71-1.23c-.38-.44-.74.47-.25.58.17-.08.29-.24.25-.58Zm-4.58-7.33c0-.28-.46-.33-.66-.56s-.14-.33-.26-.54-.42-.45-.59-.68S60,21,60,20.71s.29-.31.34-.69-.64-.15-.68-.5.21-.25.2-.51a.27.27,0,0,0-.18-.06c-.18.27-.5.14-.82.25a2.15,2.15,0,0,0-.77.72c-.1.28,0,.59,0,1,.2.1.34.55.69.78.13.08.3.05.43.13a.76.76,0,0,1,.34.65c-.07.33-.45.22-.66.47,0,.44-.28.5-.38.81.05.18.33.16.36.4s-.45.28-.36.55c.4.34.8,0,1.16-.08.82-.08,1.64.19,2.13-.2-.06-.45.4-.56.35-.95Zm-3.95-1.7c0-.38-.89-.67-1.37-.35-.26.17-.36.45-.56.52s-.5,0-.54.31.18.39.18.61-.42.34-.47.7c.36.67,1.25.13,1.69,0,.21-.07.51,0,.62-.22s0-.57.1-.88.39-.35.35-.67ZM33,12.94c0,.36-1,.87-1.06.42s.84-.87,1.06-.42ZM43.79,67.49c.1,1.45-.91,1.91-1.49,2.87-.11.2-.17.51-.34.81-.34.56-.71.67-.65,1.71a7.78,7.78,0,0,1,.18.89A5,5,0,0,1,41.42,75c-.05.27-.23.48-.25.71s.07.45,0,.65a3,3,0,0,1-.36.86c-.31.69-.34,1.49-1,1.76-.37.16-.92,0-1.34.21a6.64,6.64,0,0,0-.6.34c-.61.29-1.46.72-1.59,1.42s.28,1.16.23,1.87a5.69,5.69,0,0,1-.38.67c-.14.21-.19.49-.33.69s-.51.42-.61.82c0,.13,0,.31,0,.51s-.13.2-.18.36,0,.29-.07.41c-.14.37-.53,1.16-.86,1.27-.7.18-1.52-.47-2-.39.12.41.36.38.56.67a4.62,4.62,0,0,0,.33.59c.17.2.31.29.36.51a1.27,1.27,0,0,1-.39,1.12,2.4,2.4,0,0,1-1,.25c-.25,0-.9,0-1,.13a.34.34,0,0,0,0,.23,46.64,46.64,0,0,1-7.35-3.38,2.42,2.42,0,0,1,0-.25c0-.24.09-.46.07-.68a7.31,7.31,0,0,0-.27-1.52c-.14-.44-.51-.89-.64-1.37,0-.18,0-.47,0-.7s-.17-.42-.22-.67a3.07,3.07,0,0,1,0-.68c0-.49-.21-1-.24-1.51,0-.15.05-.25,0-.39-.06-.41-.22-.82-.28-1.22a18.36,18.36,0,0,0-.23-1.92,9.53,9.53,0,0,0-.51-1.67,6.8,6.8,0,0,0-1.45-1.31c-.28-.19-.58-.26-.87-.43a6.27,6.27,0,0,1-2.14-1.76c-.09-.18-.11-.42-.19-.61a8.25,8.25,0,0,0-.84-1.18c-.5-.76-1-1.69-1.46-2.46a10,10,0,0,0-.77-1.15c-.17-.2-.67-.38-.74-.67A5,5,0,0,1,12.38,64c0-.34.7-.6.68-.91s-.39-.46-.46-.71c-.24-.58.05-.89.25-1.36a2.71,2.71,0,0,1,.2-.51c.13-.2.4-.24.56-.45a5.69,5.69,0,0,0,.27-.55c.28-.36.73-.47.83-.83a7.41,7.41,0,0,0,0-2.15c-.08-.25-.33-.51-.43-.76-.18-.47-.22-1-.69-1-.29,0-.48.32-.66.5s0,.55-.28.62c-.43.13-.6-.47-1.1-.64-.19-.06-.51-.07-.64-.13-.35-.18-.49-.7-.87-.92s-.6-.14-.8-.41a3.22,3.22,0,0,1,0-.72c-.42-.26-.76-1.14-1.25-1.35-.31-.14-.79-.14-1.19-.28-.18-.06-.33-.14-.53-.2a2,2,0,0,1-.67-.16c-.74-.36-1.13-1.51-2-1.49-.38,0-.77.35-1.12.33A4.42,4.42,0,0,1,1,49.54c-.31-.14-.64-.23-.93-.33C0,48.37,0,47.54,0,46.69c0-.31,0-.63,0-.95H0c0-.84.06-1.68.12-2.51h0c0-.33,0-.65.08-1v-.07A46.43,46.43,0,0,1,10.46,17.25l.13-.06h0c.24-.08.44,0,.62-.26,0-.2-.08-.3-.21-.33.6-.72,1.22-1.41,1.87-2.09.59,0,1.3.45,1.84,0,.14-.1.14-.26.29-.52a2.85,2.85,0,0,0,.61-1.23,13.17,13.17,0,0,0-1.71.68c.78-.77,1.58-1.51,2.41-2.22.39-.06.79,0,1.24,0a5.87,5.87,0,0,1,.84-.11c.32.05.43.4.69.43s.31,0,.46,0c.3,0,.54.17.89-.15.24,0,.22.31.45.31.26-.17.5-.55.86-.69.15-.05.3,0,.47-.07s.75-.57.84-.19c-.11.28-.49.38-.74.63a2.48,2.48,0,0,0-.59.91c0,.36.5.15.45.61-.11.27-.37.19-.64.34s-.33.39-.57.47a8.09,8.09,0,0,1-1.66.09c-.08.26.19.37.33.43a2.41,2.41,0,0,0,1.56,0,1.93,1.93,0,0,0,1.1-.25c.22-.18.25-.5.43-.71a1.85,1.85,0,0,1,1-.51c.15,0,.35.21.33.34,0,.36-.47.31-.54.68.27.18,1.1-.33,1.18-.65s-.2-.37-.15-.6c.07-.42.56-.46.56-.89-.2-.16-.49.13-.72.1s-.56-.43-.66-.71c.18-.23.46-.14.69-.12a2.25,2.25,0,0,1,1.46-.8c.23,0,.56-.19.64.06s-.57.62-.54,1c.45.08.71-.65,1.13-1a6.07,6.07,0,0,1,.69-.39c.23-.1.49-.35.66-.36s.2.16.37.22.4-.1.42.17c-.49.81-1.91.52-2.41,1.35,0,.52-.38,1.07-.16,1.4s.62,0,.68.29-.46.39-.36.81c.34.23.83-.31,1.2-.54s.88-.53,1-1c-.14-.38-.86,0-.92-.42a2.38,2.38,0,0,1,.38-.85,4.47,4.47,0,0,1,2.64-1.25c.17,0,.32.11.5.11.57,0,1.31-.39,1.75-.12.4-.28.81,0,1.33-.12.37.23.2.84.79,1a4.48,4.48,0,0,0,.58.05c.15,0,.32.25.48.33s.46.08.49.3-.22.34-.22.56,0,.37.07.55c.12.38.5.33.86.48s.79.48.74.79-.57.55-.74.67a3.55,3.55,0,0,1-.93.38c-.34,0-.4-.8-.86-.75a.44.44,0,0,0-.41.46c-.05.51.46.51.45,1s-.31.59-.74.94a2.68,2.68,0,0,0-.89-.31c-.25.31.32.4.11.79-.58.16-1-.14-1.49-.27-.15-.06-.39,0-.51-.1s-.22-.51-.37-.7a1.13,1.13,0,0,0-.82-.49c-.44,0-1.12.68-1.41.15.33-.93,1.38-.34,2.15-.7.28-.16.42-.48.66-.64.47-.33,1.21-.41,1.2-1,0-.3-.37-.27-.56-.39s-.39-.89-.76-.91c-.21,0-.37.2-.58.22-.46.1-.92-.11-1.35.12-.2.14-.1.31-.27.58s-.44.26-.57.45-.16.52-.35.7a4.94,4.94,0,0,1-1.31.58c-.17.08-.4.31-.56.32s-.35-.38-.7-.21c-.08.42.33.57.57.73s.56.37.63.73c-.37.69-.75,0-1.2.06s-1.35,1.16-1.68.35c.17-.48.62-.59.79-1-.5.15-1,.65-1.6.86-.24.08-.48.08-.71.18-.44.18-.78.55-1.25.79-.18.08-.39.1-.58.17a12.12,12.12,0,0,0-1.47.86,11.14,11.14,0,0,0-1.35.94,2.91,2.91,0,0,0-.62.88c0,.23.37.25.35.48s-.29.46-.16.65.44,0,.74,0c.53,0,.84.48,1.23.69a3.22,3.22,0,0,0,1.1.35c.49,0,1.07-.25,1.09.17s-.52.59-.58.84c.23.36-.23.57-.27.91s.25.66.52.66a1.67,1.67,0,0,0,1.12-.86c.22-.48.2-1.1.55-1.48a3.06,3.06,0,0,0,3.24-2.91,2.52,2.52,0,0,1,0-.62c.09-.3.57-.6.55-1,.48-.18.55-1,1-1.17s.81.26,1.34.18c.18,0,.41-.22.58-.18.34,0,.51.48.75.69s.45.11.5.36c-.11.45-.38.47-.39.89a.7.7,0,0,0,.48.65,1.65,1.65,0,0,0,.91-.29c.49-.26,1-1.06,1.34-1s.48,1.17.5,1.56-.11.77-.12,1.18c0,.67.78.58,1.13.9.11.11.14.37.22.52s.39.24.4.53c0,.7-.6.77-.59,1.55-.13.3-.47.28-.46.69,0,.62.86.11,1.06.6.12.26,0,.48-.15.85.27.36.24.94-.27.95-.3,0-.36-.33-.66-.41s-.41,0-.62-.07l-.57-.1c-.45-.05-.94.1-1.19-.17a14.9,14.9,0,0,1,1.65-1.84c.19-.16.53-.28.48-.61-.3-.28-.7,0-1,.24a4,4,0,0,1-1.05.56c-.6.11-1.37-.16-1.88.21-.1.32.54.16.43.64-.25,0-.48.06-.65-.11s0-.42-.15-.51a1.83,1.83,0,0,0-1.18-.09,1,1,0,0,0-.81.7c.44.21,1.23-.31,1.35.28-.27.51-.88.81-.84,1.46a.73.73,0,0,0,.48.61c.19,0,.32-.19.51-.17s.14.27.39.2.58-.7,1-.68c.46.61-.48,1-1,1.18s-1.36.4-1.82.61c-.24.12-1.18,1.07-1.26.37-.07-.5.45-.39.59-.81-.56-.08-1.11.32-1.64.55-.76.33-2,.58-2.25,1.46,0,.18.05.51-.07.63s-.61.14-.86.26-.67.42-.9.48-.4.07-.51.11c-.31.15-.43.56-.78.86-.16.12-.47.2-.57.32s-.27.72-.6.8-.39-.14-.59,0A5,5,0,0,1,19.57,36a12.54,12.54,0,0,1-1.52,1c-.32.19-.6.24-1,.46s-.53.48-.85.69c-.72.43-1.6,1-1.64,2.06,0,.22.1.48.12.75s0,.32,0,.48c0,.39.3.91,0,1.17-.5-.2-1.13-.24-1.47-.59-.08-.36.21-.69.17-1a1.06,1.06,0,0,0-.59-.77c-.23,0-.43.22-.68.22s-.51-.4-.87-.41c-.52,0-.91.16-1.49.1-.57.33-.76.84-1.44.82-.24,0-.45-.18-.73-.22a3.91,3.91,0,0,0-1.08-.09,4.71,4.71,0,0,0-1.66.83c-.49.25-1.19.58-1.34,1.07a8.63,8.63,0,0,1-.16.91c-.07.15-.22.29-.32.46a3.41,3.41,0,0,0-.51,2.71,5.09,5.09,0,0,0,.62,1.2,2.08,2.08,0,0,0,1.08.5A4.17,4.17,0,0,0,5,48.11,7.44,7.44,0,0,0,6,48c.8-.23.66-1.3,1.47-1.66a3.89,3.89,0,0,1,1.39-.23.76.76,0,0,1,.24.68c0,.21-.21.37-.31.63s-.1.52-.18.72-.37.41-.45.63,0,.34-.08.48-.42.41-.26.65c.78.32,1.76-.07,2.45,0,.29.08.9.45.89.89s-.26.54-.29.91-.24,1-.25,1.41a2.23,2.23,0,0,0,1.6,1.73c.71,0,1.1-.68,2-.29.29.14.59.62.9.62s.64-.47.81-.78.21-.72.58-.91a11.4,11.4,0,0,1,1.22-.27,2.5,2.5,0,0,0,.64-.39c.18-.1.37-.43.59-.21s-.36.47-.1.8c.52.3.78-.5,1.16-.53a2.93,2.93,0,0,1,.74.42c.29.21.4.47.72.56s.53-.09.82,0,.61.4.89.39.52-.39.82-.45a1,1,0,0,1,1.2.52c.32.09.34-.37.62-.21-.15.34.08.51.21.78s.07.33.15.4.53.19.78.36a4.07,4.07,0,0,1,.76.93,2.44,2.44,0,0,0,1.32.86c.42,0,.74-.12,1.08-.07a3.38,3.38,0,0,1,1.8,1c.31.25.59.43.69.74s0,.47.12.71c.17.49.85.74.62,1.59.13.27.38.35.65.54s.41.44.64.49.31-.06.45,0a2.94,2.94,0,0,1,1.07.39,5.56,5.56,0,0,1,.69.23c.19.16.22.6.45.73s.48,0,.74,0a12.86,12.86,0,0,0,1.3.36c.22,0,.4-.1.59-.08.91.08,1.45,1.26,2.32,1.62.28.12.71,0,.89.13s.63,1.24.66,1.73Zm-17-50.64c0-.2-.42-.24-.62-.11a.46.46,0,0,0-.19.33c0,.41.79,0,.81-.22Zm15.41,3.38a30.73,30.73,0,0,1-2.87-3.29,3.77,3.77,0,0,1-.24-2,8.54,8.54,0,0,1,.44-1.41,6.83,6.83,0,0,0,.37-1.48c0-.22-.15-.38-.22-.57a8.09,8.09,0,0,0-.5-1.46,35.18,35.18,0,0,0-2-3.05c-.28-.42-.42-1.1-.88-1.21a5,5,0,0,0-2.64.27,1.44,1.44,0,0,0-.73.64c-.31.45-1.53.14-1.53.14.12-.47,0-1,.35-1.39s.61-.06.93-.08a3.15,3.15,0,0,0,1.17-.11c.14,0,.27-.43.14-.48-.34-.14-.78,0-1.18.09S32,5.13,31.61,5c-.14,0-.12-.41,0-.57a1.51,1.51,0,0,1,1-.58,5.82,5.82,0,0,0,1.72,0c.49-.15.6-.81.6-.81s-.38-.17-.44-.36-.3-.83,0-1.07l0,0A45.69,45.69,0,0,1,39.59.54a.87.87,0,0,0,.9.23c.12-.05.15-.2.15-.38.63-.08,1.27-.15,1.91-.21.2.11.46.2.61,0a.09.09,0,0,0,0-.06C44.35,0,45.52,0,46.69,0a47.89,47.89,0,0,1,6.15.4,1,1,0,0,1-.38.47l.57,0a1.11,1.11,0,0,1,.4-.41c1,.16,2.1.35,3.13.57a3.67,3.67,0,0,1-.74.68c-.3.25-.68.29-1,.52a1.34,1.34,0,0,0-.51.66,7.06,7.06,0,0,0-.09,1.38c0,.47-.11.91-.1,1.39,0,.26.14.5.17.78a2,2,0,0,1,0,1,.87.87,0,0,1-.68.37c-.51.09-1.28-.46-1.55,0s.87.4,1.1.83a1.41,1.41,0,0,1,.08,1c-.37-.08-.78-.45-1.11-.23s.25.49.41.7.69.51.86.93c.08.16-.11.39-.27.47s-.57.25-.78.06-.34-.95-.68-1.3a.37.37,0,0,0-.51.09,1.18,1.18,0,0,0,0,1c.13.22.46.14.69.21s.54,0,.69.23,0,.46,0,.68c0,0-1.13.37-1.58.47s-1.85.46-1.85.46c-.31,0-.71-.27-1,0s.19.81,0,1.08a4.83,4.83,0,0,1-1.62,1,2.71,2.71,0,0,1-.73.39c-.43.12-1.09-.23-1.33.2-.33.62.32,1.42.1,2.1a7,7,0,0,1-1.81,3c-.26.25-.29-.62-.51-.88Zm-7.8-6.31h0c.16,0,.27,0,.26-.23a.17.17,0,0,0-.26.23Zm-3.6-3.6h0a.13.13,0,0,0-.2,0l0,.15c.15,0,.19-.08.23-.17ZM21.5,30.08h0c-.14-.15-.64-.08-1,0s-.53.11-.58.3c.37.16,1.4.24,1.56-.28Zm-1.85-.54h0a.44.44,0,0,0-.1-.78c-.11-.05-.28.1-.47.09s-.4-.18-.57-.17a1,1,0,0,0-.71.32c0,.23.14.24.1.49-.37.28-.25,1.16.09,1.16s.64-1,1.14-1.15c.19-.05.27.08.52,0Zm-.8,25.19h0c.29,0,.2-.74-.14-.59s-.14.62.14.59ZM19,31.1h0c-.51-.14-1,.2-1.45.3-.26.06-.72,0-.69.38s.51.18.81.07A4.07,4.07,0,0,0,19,31.1Zm-1.38-2.77h0c.75-.39,0-1.31-.34-1.37-.57-.1-1.48.58-2.18.85-.4.14-.76.19-.88.52.29.56,1-.23,1.53-.19.25,0,.37.38.62.41a7,7,0,0,0,1.25-.22Zm-.57.65h0c-.13-.17-1,.11-1.22.28s-.3.43-.49.65-.39.42-.57.61-1,1.34-.4,1.42c.24,0,.79-.54.86-.75a2.85,2.85,0,0,1,1.11-1.58c.33-.23.64-.22.71-.63Zm.16-14.07h0c.14-.09.34-.24.28-.41-.35-.14-1,.12-1.57.15-.25-.44-.76-.42-.95.37.55.46,1.67-.53,2.24-.11ZM13,25.23h0c.41-.07.84-1.35.14-1.08-.46.16-.71,1.15-.14,1.08ZM9.55,53.05h0s0-.09.07-.15c-.12-.38-.47.13-.07.15Zm.73-33.25h0c.22-.13.49-.14.59-.36-.15-.11-.3-.27-.48-.23s-.41.28-.7.47-.76.33-.84.6a3.5,3.5,0,0,0,1.43-.48ZM85.76,33.25h0c1-.07.48-.93-.05-1.28s-.86-.51-1.32-.82c-.27-.19-1.26-.58-1.3-.89s.71-.38.39-1c-.51-.17-1.69-.11-1.58.45.07.32.44.18.54.54-.35.07-.77.36-1.15.26s-.6-.69-.86-1c-.34,0-.58-.4-1-.39s-.62.62-.83.91-.29.23-.34.39,0,.23,0,.36c-.1.41-.45.52-.39.91s.4.49.42.77-.47.11-.41.45c.69.6.69-.2,1-.29s.81.14,1.15.1.47-.29.78-.38a1.63,1.63,0,0,1,.7-.09c1.17.05,1.95.88,3,1a6.78,6.78,0,0,0,1.28.07Zm-2.17,4.06h0a8.81,8.81,0,0,0-.23-1.26c-.69-.46-1.16.3-1.85.15-.44-.07-.77-.58-1.21-.55-.25,0-.37.35-.6.37-.55.07-.81-.48-1.36-.3a4.74,4.74,0,0,1-1.42-2.81c-.45-.62-1.09-.19-1.39.14-.19,0-.44-.13-.48.09-.11.7,1,.85,1,1.3s-.43.27-.61.47-.06.42-.32.54c-.72,0-1-.37-1-1-.33-.52-.74-.88-1-1.32a1.7,1.7,0,0,1-.32-.63c0-.18.07-.41,0-.59-.09-.39-.75-.7-1.16-.94a6.47,6.47,0,0,1-1.31-.77c-.22-.2-.34-.54-.53-.68s-.38-.11-.52-.24-.18-.41-.45-.48-.34.12-.43.26c-.15.84.49.92.79,1.3a9.34,9.34,0,0,0,.55.86c.23.19.53.18.81.3s.33.36.53.5c.36.25.93.31,1,.75-.21.14-.72-.27-.88.1s.2.38.2.62a.71.71,0,0,1-.76.7c0-.23.19-.39.19-.65,0-.48-1-1.3-1.49-1.55a4.22,4.22,0,0,1-.7-.27,6.32,6.32,0,0,1-1.25-1.09c-.26-.4-.5-1.09-1.07-1.07-.24,0-.43.21-.62.3s-.37.17-.55.29a.94.94,0,0,1-.58.3c-.46,0-.85-.42-1.24-.33-.14,0-.25.15-.41.3A6,6,0,0,1,63,31c-.11.22-.47.18-.73.35a4.24,4.24,0,0,0-1,.93c-.19.21-.37.37-.4.55a2.63,2.63,0,0,1,.09.55,1.7,1.7,0,0,1-.59.72c-.12.1-.3.1-.43.21-.3.19-.43.41-.67.46-.64.11-1.82-.18-1.81.55,0,.5.62.51,1,.5.53,0,1,.12,1.25.06s.42-.28.63-.39a1.41,1.41,0,0,0,.38-.11c.21-.11.34-.29.51-.36a3.57,3.57,0,0,1,1.33-.29c.5,0,1,.08,1.66,0,.22,0,.46-.16.7-.17.4,0,.94.19,1.26.19s.46-.2.73-.2a.78.78,0,0,1,.67.46c0,.12-.06.29,0,.46s.28.41.26.59-.58.55-.49.84.47.39.66.54a2.4,2.4,0,0,0,.84.37c.21,0,.38,0,.59,0a3.15,3.15,0,0,1,1,.42c.35.26.31.67.72.82a6,6,0,0,0,.7.12c.54.15,1,.6,1.35.57.63-.05.32-.67.38-1.08.14-1,2-.84,2.36-.18.29.09.52,0,.83.14s.33.27.49.34.31,0,.48,0c.72.09,1.38.65,2,.6.38,0,.67-.39,1-.4.72,0,1.19.58,2,.35.56-.15.4-.75.59-1.32.11-.39.36-.64.35-.93Zm-.37,32h0c.18-.28.44-1,.08-1.18h-.08c-.18.32-.4,1.06,0,1.18Zm-.15-7.52h0c.14-.27.43-.56.4-.89-.09-.66-1.43-.22-1.6.29-.1.35,0,.61-.09,1,.12.25.49.27.93.19.27-.13.25-.33.36-.56Zm-2.41,4h0c.17-.29-.21-.43-.25-.72s.1-.75-.19-.89h-.11c-.29.62,0,1.59.55,1.61Zm-4.35-46h0c-.79-.78-2,0-2.85-.19a1.53,1.53,0,0,1-1-.81,3.69,3.69,0,0,1-.07-.51c0-.23-.18-.52-.19-.66,0-.68,1.58-.6,1.51-1.46-.33-.35-1.21-.44-1.46-.13-.11.12-.09.35-.21.58-.28.47-1.31.42-1.59,1a1.37,1.37,0,0,0-.1.74c.11.37.86.57.9.94.08.65-.88.46-1,1-.05.23.13.59.1.82,0,.39-.42.24-.87.42-.22.08-.44.46-.7.45s-.37-.18-.54-.15-.14.34-.48.38-.77-.33-.79.06.45.41.73.41.39-.17.61-.15c.42,0,.72.39,1,.43.62.07,1.2-.5,1.85-.36.29,0,.48.29.69.29s.62-.39.86-.52c-.13-.64-.08-1.49.49-1.47.38,0,1,.83,1,.13a.74.74,0,0,0-.56-.63c-.21,0-.44.38-.64,0,0-.34.35-.21.54-.27s.24-.21.42-.26C74.82,19.66,76.05,20.44,76.31,19.74Z"/><path class="cls-2" d="M75.88,1.32,91.11,12.5a2.37,2.37,0,0,1,.5,3.28L69.91,45.31a2.34,2.34,0,0,1-3.27.5L51.42,34.63a2.35,2.35,0,0,1-.5-3.28L72.61,1.82A2.35,2.35,0,0,1,75.88,1.32Z"/><path class="cls-3" d="M68,44.26a.36.36,0,0,1-.2-.06L52.6,33a.32.32,0,0,1-.13-.22.31.31,0,0,1,.06-.25L74.22,3a.36.36,0,0,1,.48-.08L89.92,14.12a.34.34,0,0,1,.14.22.36.36,0,0,1-.06.25L68.3,44.12A.34.34,0,0,1,68,44.26Z"/><path class="cls-4" d="M79.64,13.77a8.35,8.35,0,0,1,.71,4.37,16.37,16.37,0,0,1-9.63,13.2,8.36,8.36,0,0,1-4.38.67,3.06,3.06,0,0,1-1.51-.62l-2.49-1.82a1.35,1.35,0,0,1-.3-1.89l2.05-2.82a1.38,1.38,0,0,1,1.9-.3l2.57,1.86c.44.33.5.46.58.67a12.26,12.26,0,0,0,6.67-9.15c-.22,0-.36,0-.81-.35l-2.55-1.88a1.37,1.37,0,0,1-.3-1.9l2-2.81a1.36,1.36,0,0,1,1.9-.3l2.49,1.82A3,3,0,0,1,79.64,13.77Z"/><path class="cls-4" d="M36.52,35.67,30.06,33.5l-1.75.94a17.61,17.61,0,1,1,7.11-7.1L34.51,29Z"/><path class="cls-3" d="M16.14,15.72c.92-1.08,2.34-2.21,3.5-2.21.94,0,2,.24,2,1.26,0,1.49-4.29,2.89-4.29,5.36v2.16h5V20.81c0-1.62,4.29-2.48,4.29-6S23.82,9.3,20.23,9.3a9.25,9.25,0,0,0-7,3.48l2.91,2.94Zm.51,10.1a3,3,0,0,0,3.07,2.77,2.91,2.91,0,0,0,3.21-2.77A3,3,0,0,0,19.72,23,3,3,0,0,0,16.65,25.82Z"/></g></g></svg>